<mxfile host="app.diagrams.net" agent="Mozilla/5.0 (Windows NT 10.0; Win64; x64) AppleWebKit/537.36 (KHTML, like Gecko) Chrome/137.0.0.0 Safari/537.36" version="27.2.0">
  <diagram name="Page-1" id="PokyQz_FO7VpTAPz-W_v">
    <mxGraphModel dx="786" dy="451" grid="1" gridSize="10" guides="1" tooltips="1" connect="1" arrows="1" fold="1" page="1" pageScale="1" pageWidth="850" pageHeight="1100" math="0" shadow="0">
      <root>
        <mxCell id="0" />
        <mxCell id="1" parent="0" />
        <mxCell id="U4xPKiUXNkv9j3e4do6n-1" value="START" style="ellipse;whiteSpace=wrap;html=1;" vertex="1" parent="1">
          <mxGeometry x="320" y="20" width="120" height="80" as="geometry" />
        </mxCell>
        <mxCell id="U4xPKiUXNkv9j3e4do6n-2" value="" style="endArrow=classic;html=1;rounded=0;" edge="1" parent="1">
          <mxGeometry width="50" height="50" relative="1" as="geometry">
            <mxPoint x="379.5" y="100" as="sourcePoint" />
            <mxPoint x="380" y="170" as="targetPoint" />
          </mxGeometry>
        </mxCell>
        <mxCell id="U4xPKiUXNkv9j3e4do6n-3" value="&amp;nbsp;PRINT&lt;div&gt;&quot;WELCOME TO RESTAURANT MENU&quot;&lt;/div&gt;&lt;div&gt;&amp;nbsp; &amp;nbsp; &amp;nbsp; &amp;nbsp; &amp;nbsp;1. BREAKFAST&lt;/div&gt;&lt;div&gt;&lt;span style=&quot;background-color: transparent; color: light-dark(rgb(0, 0, 0), rgb(255, 255, 255));&quot;&gt;2. LUNCH&lt;/span&gt;&lt;/div&gt;" style="shape=parallelogram;perimeter=parallelogramPerimeter;whiteSpace=wrap;html=1;fixedSize=1;" vertex="1" parent="1">
          <mxGeometry x="240" y="170" width="280" height="80" as="geometry" />
        </mxCell>
        <mxCell id="U4xPKiUXNkv9j3e4do6n-4" value="" style="endArrow=classic;html=1;rounded=0;" edge="1" parent="1">
          <mxGeometry width="50" height="50" relative="1" as="geometry">
            <mxPoint x="379.5" y="260" as="sourcePoint" />
            <mxPoint x="379.5" y="350" as="targetPoint" />
          </mxGeometry>
        </mxCell>
        <mxCell id="U4xPKiUXNkv9j3e4do6n-6" value="ENTER SELECTION&lt;div&gt;1 OR 2&lt;/div&gt;" style="shape=parallelogram;perimeter=parallelogramPerimeter;whiteSpace=wrap;html=1;fixedSize=1;" vertex="1" parent="1">
          <mxGeometry x="270" y="360" width="210" height="60" as="geometry" />
        </mxCell>
        <mxCell id="U4xPKiUXNkv9j3e4do6n-7" value="" style="endArrow=classic;html=1;rounded=0;" edge="1" parent="1">
          <mxGeometry width="50" height="50" relative="1" as="geometry">
            <mxPoint x="379.5" y="420" as="sourcePoint" />
            <mxPoint x="379.5" y="490" as="targetPoint" />
          </mxGeometry>
        </mxCell>
        <mxCell id="U4xPKiUXNkv9j3e4do6n-8" value="IF NO. 1" style="rhombus;whiteSpace=wrap;html=1;" vertex="1" parent="1">
          <mxGeometry x="300" y="495" width="160" height="110" as="geometry" />
        </mxCell>
        <mxCell id="U4xPKiUXNkv9j3e4do6n-10" value="YES" style="text;html=1;align=center;verticalAlign=middle;resizable=0;points=[];autosize=1;strokeColor=none;fillColor=none;" vertex="1" parent="1">
          <mxGeometry x="480" y="520" width="50" height="30" as="geometry" />
        </mxCell>
        <mxCell id="U4xPKiUXNkv9j3e4do6n-11" value="" style="endArrow=classic;html=1;rounded=0;" edge="1" parent="1">
          <mxGeometry width="50" height="50" relative="1" as="geometry">
            <mxPoint x="300" y="550" as="sourcePoint" />
            <mxPoint x="230" y="550" as="targetPoint" />
          </mxGeometry>
        </mxCell>
        <mxCell id="U4xPKiUXNkv9j3e4do6n-12" value="NO" style="text;html=1;align=center;verticalAlign=middle;resizable=0;points=[];autosize=1;strokeColor=none;fillColor=none;" vertex="1" parent="1">
          <mxGeometry x="260" y="530" width="40" height="30" as="geometry" />
        </mxCell>
        <mxCell id="U4xPKiUXNkv9j3e4do6n-13" value="&amp;nbsp; &amp;nbsp; &amp;nbsp;&lt;div&gt;OUTPUT;&lt;/div&gt;&lt;div&gt;BREAKFAST&lt;div&gt;&amp;nbsp; &amp;nbsp; &amp;nbsp;1. Katogo&lt;div&gt;&lt;span style=&quot;background-color: transparent; color: light-dark(rgb(0, 0, 0), rgb(255, 255, 255));&quot;&gt;2. Milk&lt;/span&gt;&lt;div&gt;&amp;nbsp; 3. Eggs&lt;/div&gt;&lt;div&gt;&amp;nbsp; &amp;nbsp; &amp;nbsp; &amp;nbsp; &amp;nbsp; 4. Sandwich&amp;nbsp;&lt;/div&gt;&lt;div&gt;&amp;nbsp; &amp;nbsp; &amp;nbsp; &amp;nbsp;5. Chapatti&lt;/div&gt;&lt;div&gt;&lt;br&gt;&lt;/div&gt;&lt;/div&gt;&lt;/div&gt;&lt;/div&gt;" style="shape=parallelogram;perimeter=parallelogramPerimeter;whiteSpace=wrap;html=1;fixedSize=1;" vertex="1" parent="1">
          <mxGeometry x="490" y="640" width="130" height="120" as="geometry" />
        </mxCell>
        <mxCell id="U4xPKiUXNkv9j3e4do6n-16" value="" style="endArrow=none;html=1;rounded=0;exitX=1;exitY=0.5;exitDx=0;exitDy=0;" edge="1" parent="1" source="U4xPKiUXNkv9j3e4do6n-8">
          <mxGeometry width="50" height="50" relative="1" as="geometry">
            <mxPoint x="470" y="550" as="sourcePoint" />
            <mxPoint x="560" y="550" as="targetPoint" />
          </mxGeometry>
        </mxCell>
        <mxCell id="U4xPKiUXNkv9j3e4do6n-18" value="" style="endArrow=classic;html=1;rounded=0;" edge="1" parent="1">
          <mxGeometry width="50" height="50" relative="1" as="geometry">
            <mxPoint x="560" y="550" as="sourcePoint" />
            <mxPoint x="560" y="640" as="targetPoint" />
          </mxGeometry>
        </mxCell>
        <mxCell id="U4xPKiUXNkv9j3e4do6n-19" value="&lt;div&gt;OUTPT;&lt;/div&gt;&lt;div&gt;&lt;br&gt;&lt;/div&gt;LUNCH&lt;div&gt;1. Rice&amp;nbsp;&lt;/div&gt;&lt;div&gt;&amp;nbsp; &amp;nbsp;2. Beans&lt;/div&gt;&lt;div&gt;&amp;nbsp; &amp;nbsp; 3. Posho&amp;nbsp;&lt;/div&gt;&lt;div&gt;&amp;nbsp; &amp;nbsp; &amp;nbsp;4. G. nuts&amp;nbsp;&lt;/div&gt;" style="shape=parallelogram;perimeter=parallelogramPerimeter;whiteSpace=wrap;html=1;fixedSize=1;" vertex="1" parent="1">
          <mxGeometry x="110" y="510" width="120" height="160" as="geometry" />
        </mxCell>
        <mxCell id="U4xPKiUXNkv9j3e4do6n-20" value="" style="endArrow=classic;html=1;rounded=0;" edge="1" parent="1">
          <mxGeometry width="50" height="50" relative="1" as="geometry">
            <mxPoint x="160" y="670" as="sourcePoint" />
            <mxPoint x="160" y="770" as="targetPoint" />
          </mxGeometry>
        </mxCell>
        <mxCell id="U4xPKiUXNkv9j3e4do6n-21" value="ENTER ITEM NO." style="rounded=0;whiteSpace=wrap;html=1;" vertex="1" parent="1">
          <mxGeometry x="100" y="770" width="120" height="60" as="geometry" />
        </mxCell>
        <mxCell id="U4xPKiUXNkv9j3e4do6n-22" value="" style="endArrow=classic;html=1;rounded=0;" edge="1" parent="1">
          <mxGeometry width="50" height="50" relative="1" as="geometry">
            <mxPoint x="560" y="765" as="sourcePoint" />
            <mxPoint x="560" y="835" as="targetPoint" />
          </mxGeometry>
        </mxCell>
        <mxCell id="U4xPKiUXNkv9j3e4do6n-23" value="ENTER ITEM NO." style="rounded=0;whiteSpace=wrap;html=1;" vertex="1" parent="1">
          <mxGeometry x="500" y="840" width="120" height="60" as="geometry" />
        </mxCell>
        <mxCell id="U4xPKiUXNkv9j3e4do6n-24" value="IF ITEM VALID" style="rhombus;whiteSpace=wrap;html=1;" vertex="1" parent="1">
          <mxGeometry x="270" y="870" width="140" height="100" as="geometry" />
        </mxCell>
        <mxCell id="U4xPKiUXNkv9j3e4do6n-25" value="" style="endArrow=none;html=1;rounded=0;" edge="1" parent="1">
          <mxGeometry width="50" height="50" relative="1" as="geometry">
            <mxPoint x="160" y="920" as="sourcePoint" />
            <mxPoint x="159.5" y="830" as="targetPoint" />
          </mxGeometry>
        </mxCell>
        <mxCell id="U4xPKiUXNkv9j3e4do6n-26" value="" style="endArrow=classic;html=1;rounded=0;" edge="1" parent="1">
          <mxGeometry width="50" height="50" relative="1" as="geometry">
            <mxPoint x="160" y="920" as="sourcePoint" />
            <mxPoint x="260" y="920" as="targetPoint" />
          </mxGeometry>
        </mxCell>
        <mxCell id="U4xPKiUXNkv9j3e4do6n-27" value="" style="endArrow=none;html=1;rounded=0;" edge="1" parent="1">
          <mxGeometry width="50" height="50" relative="1" as="geometry">
            <mxPoint x="560" y="930" as="sourcePoint" />
            <mxPoint x="560" y="900" as="targetPoint" />
          </mxGeometry>
        </mxCell>
        <mxCell id="U4xPKiUXNkv9j3e4do6n-28" value="" style="endArrow=classic;html=1;rounded=0;" edge="1" parent="1">
          <mxGeometry width="50" height="50" relative="1" as="geometry">
            <mxPoint x="560" y="930" as="sourcePoint" />
            <mxPoint x="420" y="930" as="targetPoint" />
          </mxGeometry>
        </mxCell>
        <mxCell id="U4xPKiUXNkv9j3e4do6n-30" value="" style="endArrow=classic;html=1;rounded=0;" edge="1" parent="1">
          <mxGeometry width="50" height="50" relative="1" as="geometry">
            <mxPoint x="340" y="1040" as="sourcePoint" />
            <mxPoint x="430" y="1040" as="targetPoint" />
          </mxGeometry>
        </mxCell>
        <mxCell id="U4xPKiUXNkv9j3e4do6n-32" value="" style="endArrow=none;html=1;rounded=0;entryX=0.5;entryY=1;entryDx=0;entryDy=0;" edge="1" parent="1" target="U4xPKiUXNkv9j3e4do6n-24">
          <mxGeometry width="50" height="50" relative="1" as="geometry">
            <mxPoint x="340" y="1040" as="sourcePoint" />
            <mxPoint x="340" y="990" as="targetPoint" />
          </mxGeometry>
        </mxCell>
        <mxCell id="U4xPKiUXNkv9j3e4do6n-33" value="PRINT ITEM AND VALUE" style="shape=parallelogram;perimeter=parallelogramPerimeter;whiteSpace=wrap;html=1;fixedSize=1;" vertex="1" parent="1">
          <mxGeometry x="425" y="1010" width="205" height="60" as="geometry" />
        </mxCell>
        <mxCell id="U4xPKiUXNkv9j3e4do6n-34" value="" style="endArrow=classic;html=1;rounded=0;" edge="1" parent="1">
          <mxGeometry width="50" height="50" relative="1" as="geometry">
            <mxPoint x="400" y="900" as="sourcePoint" />
            <mxPoint x="480" y="870" as="targetPoint" />
          </mxGeometry>
        </mxCell>
        <mxCell id="U4xPKiUXNkv9j3e4do6n-35" value="" style="endArrow=classic;html=1;rounded=0;" edge="1" parent="1">
          <mxGeometry width="50" height="50" relative="1" as="geometry">
            <mxPoint x="280" y="890" as="sourcePoint" />
            <mxPoint x="230" y="830" as="targetPoint" />
          </mxGeometry>
        </mxCell>
      </root>
    </mxGraphModel>
  </diagram>
</mxfile>
